<?xml version="1.0" standalone="no"?>
<!DOCTYPE svg PUBLIC "-//W3C//DTD SVG 20010904//EN"
 "http://www.w3.org/TR/2001/REC-SVG-20010904/DTD/svg10.dtd">
<svg version="1.0" xmlns="http://www.w3.org/2000/svg"
 width="1200.000000pt" height="675.000000pt" viewBox="0 0 1200.000000 675.000000"
 preserveAspectRatio="xMidYMid meet">

<g transform="translate(0.000000,675.000000) scale(0.100000,-0.100000)"
fill="#000000" stroke="none">
<path d="M3430 6669 c-58 -43 -136 -107 -173 -140 -68 -61 -218 -224 -257
-279 l-20 -28 94 5 c164 10 467 -22 720 -77 103 -22 169 -43 264 -86 70 -31
168 -74 217 -96 246 -109 490 -256 700 -423 61 -48 114 -90 118 -94 4 -4 -75
-6 -175 -3 -171 4 -198 2 -428 -32 -272 -40 -428 -77 -555 -132 -97 -42 -118
-60 -57 -49 84 14 221 -26 461 -135 338 -153 591 -281 591 -300 0 -4 -17 -11
-37 -15 -43 -8 -89 -29 -118 -55 -11 -9 -33 -20 -48 -24 -79 -19 -216 -135
-272 -231 -37 -62 -142 -317 -159 -382 -30 -122 -49 -292 -43 -386 10 -147 86
-404 148 -502 l32 -50 -17 -46 c-9 -26 -49 -116 -89 -200 -138 -289 -168 -385
-149 -479 7 -32 26 -91 42 -130 l30 -72 -26 -77 c-28 -84 -51 -228 -40 -256
10 -28 16 -14 35 96 11 57 24 124 31 149 12 44 12 44 25 20 9 -18 12 -65 9
-175 -3 -161 8 -241 41 -292 24 -36 126 -143 137 -143 14 0 9 14 -18 45 -61
70 -103 133 -113 170 -18 66 -12 296 14 536 38 361 60 462 122 581 32 62 157
227 233 308 18 19 40 50 50 67 22 41 22 41 95 -107 l57 -115 -7 -93 c-3 -52
-9 -101 -12 -110 -4 -10 5 -5 20 11 35 37 47 34 44 -10 -2 -37 -1 -38 48 -50
28 -7 75 -30 105 -51 30 -22 74 -49 98 -61 34 -17 42 -27 42 -49 0 -15 9 -60
20 -101 16 -63 17 -82 7 -118 -13 -48 -6 -45 -143 -72 -56 -12 -132 -32 -170
-46 -38 -14 -75 -28 -83 -31 -8 -2 -12 -7 -9 -9 3 -3 71 13 152 35 81 22 167
43 191 47 l44 6 -22 -67 -22 -66 -50 0 c-59 0 -285 -27 -293 -35 -7 -7 29 -6
187 5 74 5 138 7 142 4 7 -4 -28 -121 -50 -169 -6 -11 -26 -58 -46 -105 -20
-47 -43 -90 -51 -96 -8 -6 -12 -18 -8 -27 13 -35 -66 -133 -146 -180 -25 -15
-68 -48 -96 -75 -72 -66 -99 -80 -121 -60 -25 22 -79 48 -98 48 -36 0 -95
-104 -95 -166 0 -40 15 -45 24 -9 8 31 40 65 61 65 14 0 14 -3 0 -30 -8 -16
-15 -36 -15 -45 0 -9 -12 -27 -26 -40 -35 -33 -22 -31 78 6 80 30 89 31 223
30 77 -1 156 3 175 9 23 7 36 7 38 0 2 -5 11 -10 20 -10 10 0 5 -6 -13 -16
-16 -8 -37 -22 -46 -30 -8 -8 -19 -14 -23 -14 -4 0 -21 -9 -37 -21 -24 -17
-28 -24 -18 -35 9 -11 26 -13 70 -8 32 4 78 3 103 0 38 -6 44 -10 37 -24 -4
-9 -19 -39 -32 -66 -26 -54 -188 -306 -189 -293 0 4 15 32 33 60 49 76 59 97
48 97 -5 0 -33 -34 -62 -75 -58 -84 -75 -98 -34 -29 27 46 28 67 1 45 -12 -10
-14 -8 -9 11 8 31 17 41 -270 -314 -65 -81 -122 -104 -317 -127 -52 -7 -124
-18 -160 -26 -36 -8 -93 -16 -127 -18 -64 -3 -69 0 -74 50 -1 5 -5 16 -10 25
-6 12 -6 18 1 18 5 0 10 8 10 18 1 28 35 120 84 225 43 91 44 98 23 92 -12 -4
-39 -18 -59 -31 -21 -13 -38 -22 -38 -20 0 3 9 28 20 56 11 28 20 55 20 61 0
11 -81 -41 -123 -80 l-28 -26 3 101 c4 118 5 115 -102 187 -85 58 -154 124
-224 215 -41 54 -46 66 -35 77 28 27 313 196 324 191 6 -2 59 40 117 93 116
106 149 122 291 140 59 7 61 8 34 19 -37 16 -69 15 -145 -3 -86 -20 -112 -35
-196 -113 -45 -42 -127 -99 -216 -152 -79 -47 -170 -105 -202 -129 -54 -40
-62 -43 -101 -37 -23 4 -64 14 -90 22 -68 23 -88 14 -124 -53 -33 -62 -30 -60
-173 -106 -25 -8 -52 -17 -61 -21 -21 -9 -64 35 -95 96 -13 27 -26 48 -29 48
-9 0 -29 -47 -40 -93 l-10 -47 -59 130 c-96 214 -115 233 -239 238 -75 3 -87
1 -139 -26 l-57 -30 -93 29 c-218 69 -364 89 -450 60 -50 -16 -77 -51 -124
-157 -21 -49 -76 -164 -122 -256 -47 -96 -85 -187 -88 -212 -6 -41 -4 -47 35
-89 l42 -45 -10 -80 c-14 -109 1 -154 79 -247 61 -74 77 -111 82 -195 7 -110
29 -146 131 -214 47 -31 89 -56 96 -56 6 0 11 -7 11 -15 0 -9 9 -34 20 -55
l20 -40 736 0 736 0 85 30 86 31 38 -31 c33 -26 46 -30 101 -30 62 0 64 1 153
68 88 67 90 69 93 114 l3 45 117 21 c69 12 201 25 322 31 271 13 271 13 420
157 l117 114 58 2 58 3 37 -120 c20 -66 44 -137 53 -157 23 -54 34 -207 16
-219 -8 -5 -62 -9 -121 -9 -85 0 -108 -3 -108 -14 0 -33 26 -35 328 -36 262 0
302 2 302 15 0 8 6 15 14 15 16 0 29 58 20 86 -4 14 -3 15 4 6 7 -10 11 3 16
45 4 32 8 73 11 91 2 19 0 30 -5 27 -6 -4 -10 -1 -10 4 0 6 6 11 13 11 9 0 9
3 -1 9 -14 8 -12 30 14 148 7 35 38 46 64 25 21 -17 22 -23 14 -73 -10 -62 -7
-122 6 -114 15 9 24 -64 11 -92 -6 -13 -9 -29 -6 -34 10 -15 35 -10 35 6 0 8
7 15 15 15 9 0 15 9 14 23 0 21 -1 21 -9 2 l-9 -20 0 20 c0 11 4 27 9 35 6 10
10 11 10 3 0 -31 17 -9 29 37 7 27 18 53 23 57 7 4 9 -2 6 -15 -4 -12 -2 -22
3 -22 5 0 9 19 9 43 0 23 4 37 8 30 9 -14 35 3 45 30 4 11 17 17 36 17 16 0
37 3 46 6 11 5 18 0 22 -15 3 -11 12 -21 19 -21 16 0 19 -26 4 -35 -6 -4 -5
-11 3 -19 15 -15 15 -52 0 -81 -6 -11 -13 -38 -16 -60 -3 -22 -8 -49 -10 -60
-2 -11 -8 -41 -11 -67 -4 -27 -11 -48 -17 -48 -5 0 -9 -7 -9 -15 0 -12 17 -15
89 -15 l89 0 5 28 c25 117 27 145 16 159 -9 10 -9 17 -1 25 9 9 12 9 12 0 0
-25 29 -11 32 16 3 24 6 27 41 25 20 -1 51 -9 69 -17 17 -9 39 -16 50 -16 10
0 18 -4 18 -10 0 -5 17 -12 38 -16 20 -4 42 -10 48 -15 6 -5 34 -10 62 -13 29
-2 58 -8 65 -13 6 -5 27 -15 45 -23 33 -13 38 -27 33 -98 l-2 -32 109 0 109 0
7 39 c9 56 40 67 148 52 46 -7 121 -10 167 -9 77 3 85 1 98 -20 9 -12 23 -22
32 -22 9 0 22 -9 29 -20 12 -20 23 -20 818 -20 l805 0 -6 22 c-6 18 -4 20 11
13 62 -26 122 -7 150 46 29 58 -1 122 -68 148 -34 13 -72 1 -109 -35 l-26 -24
-16 60 c-26 93 -30 89 81 92 92 3 97 4 100 26 4 29 16 28 30 -3 11 -24 15 -25
107 -25 52 0 95 -3 95 -7 0 -8 -53 -64 -107 -112 -28 -25 -33 -36 -33 -74 0
-35 6 -49 29 -73 16 -15 28 -33 26 -39 -1 -5 0 -7 2 -2 3 4 18 7 34 7 71 0
127 61 114 126 -7 39 -47 84 -75 84 -32 0 -30 14 8 60 35 42 36 46 33 111 -4
88 14 98 22 12 4 -36 9 -69 13 -72 3 -3 99 -9 214 -13 115 -3 218 -9 229 -13
22 -7 20 -9 38 80 l8 40 3 -47 c2 -31 9 -52 20 -60 10 -7 17 -24 15 -38 -1
-14 -3 -49 -4 -78 -1 -28 -6 -52 -11 -52 -4 0 -8 6 -8 13 0 24 -47 59 -88 64
-70 9 -119 -35 -124 -112 -7 -112 170 -146 212 -41 7 17 9 18 9 4 1 -10 8 -18
17 -18 8 0 30 -11 48 -25 68 -52 167 -18 182 61 17 93 -82 165 -167 120 -24
-12 -26 -12 -23 3 2 9 5 36 7 61 4 44 5 45 43 52 166 32 154 27 154 59 0 23 4
29 21 29 19 0 20 -4 15 -36 -4 -19 -10 -42 -13 -50 -4 -12 17 -14 131 -14 118
0 136 -2 136 -16 0 -13 -6 -15 -37 -8 -77 15 -87 12 -97 -28 -8 -32 -14 -38
-37 -38 -18 0 -41 -12 -63 -34 -30 -28 -36 -40 -36 -76 0 -34 6 -48 34 -76 19
-19 43 -34 55 -34 12 0 21 -4 21 -10 0 -6 51 -10 134 -10 148 0 146 -1 146 74
0 25 3 27 23 22 51 -16 98 -18 126 -6 16 6 39 9 50 5 17 -5 21 -15 21 -51 l0
-45 36 3 c32 3 38 8 48 38 l11 35 323 3 c177 1 322 4 322 7 0 2 -13 25 -30 51
l-29 47 20 40 c16 31 19 50 14 83 l-6 44 34 0 c42 0 32 -33 92 320 26 151 51
280 57 287 5 6 43 15 84 18 115 11 108 22 -28 41 -27 3 -48 11 -48 18 0 6 14
87 30 181 17 93 30 177 30 187 0 17 -17 18 -259 18 l-259 0 -6 -25 c-5 -21
-12 -25 -43 -25 l-36 0 7 268 6 267 -80 -255 c-45 -140 -83 -261 -85 -267 -3
-10 -38 -13 -129 -13 -72 0 -127 -4 -131 -10 -3 -5 -15 -61 -26 -122 -11 -62
-23 -128 -26 -145 -5 -28 -11 -34 -42 -42 -88 -22 -84 -22 -77 7 3 15 12 59
20 97 9 39 16 92 16 119 0 81 -71 300 -185 571 l-46 110 30 65 c32 70 75 230
87 320 4 30 15 66 25 80 9 14 28 50 42 80 24 55 115 218 152 275 19 27 19 29
2 22 -10 -4 -32 0 -50 9 -65 33 -65 33 9 101 77 70 76 87 -6 78 -37 -3 -52 1
-82 21 -32 23 -36 30 -31 55 6 32 -4 37 -39 18 -17 -9 -26 -5 -59 27 -38 37
-87 139 -74 153 4 3 25 13 48 22 63 25 65 36 21 104 -21 33 -51 91 -67 130
-31 76 -55 108 -102 133 l-30 16 49 10 c27 6 51 16 53 21 4 12 -126 56 -239
80 -74 16 -80 20 -131 75 -46 49 -61 77 -103 185 -31 82 -60 140 -80 161 -28
30 -30 35 -15 43 13 8 12 11 -12 20 -16 6 -33 11 -38 11 -5 0 -9 9 -9 19 0 47
-101 222 -136 235 -36 14 -5 37 144 106 86 40 202 87 257 105 121 41 353 100
453 115 90 15 85 28 -26 64 -322 105 -610 163 -877 175 l-140 6 145 95 c171
111 317 189 490 260 69 28 134 57 145 64 27 17 132 51 233 75 46 11 95 27 109
37 25 16 25 16 7 34 -31 29 -467 176 -674 227 -91 22 -118 25 -205 19 -55 -3
-139 -14 -187 -24 -60 -12 -84 -14 -77 -6 8 10 164 115 323 217 85 55 77 60
-75 52 -145 -7 -311 -32 -429 -65 -96 -25 -168 -44 -303 -75 -59 -13 -126 -34
-149 -45 -23 -11 -43 -20 -45 -20 -2 0 -3 16 -3 35 0 75 -70 235 -168 385 -67
103 -239 277 -339 343 l-71 47 -2298 -1 -2299 0 -105 -80z m2986 -1235 c-41
-233 -31 -370 52 -697 32 -125 55 -226 51 -225 -5 3 -108 112 -259 274 l-55
59 -3 115 c-5 134 10 205 65 314 49 97 151 252 160 242 2 -1 -4 -38 -11 -82z
m1074 -201 c0 -136 -33 -387 -54 -411 -7 -6 -38 -21 -71 -33 -69 -24 -159 -68
-152 -75 2 -2 48 14 103 36 54 22 102 40 106 40 11 0 10 -38 -1 -44 -5 -3 -7
-14 -4 -24 3 -14 -10 -28 -59 -57 -35 -21 -71 -38 -82 -37 -25 1 -108 -55
-181 -123 -59 -56 -52 -61 14 -11 19 14 41 26 48 26 8 0 66 34 130 75 63 42
117 75 118 73 4 -4 -58 -231 -80 -298 -18 -52 -47 -76 -179 -145 -108 -56
-165 -62 -182 -17 -13 35 -42 38 -50 5 -8 -29 0 -62 21 -88 15 -19 16 -18 10
15 l-6 35 16 -27 c8 -15 27 -31 41 -34 40 -10 128 2 179 25 46 20 46 20 78 1
18 -11 50 -20 73 -20 57 0 119 53 137 118 13 45 17 49 103 95 48 26 90 47 91
47 9 0 1 -52 -13 -78 -32 -64 0 -50 86 40 87 90 89 92 109 74 37 -33 36 -70
-2 -151 -20 -41 -53 -100 -75 -132 l-40 -59 -65 -2 c-126 -3 -380 -68 -374
-95 1 -6 -50 -32 -113 -59 -134 -55 -131 -61 7 -17 133 43 131 42 103 25 -22
-14 -23 -15 -5 -16 11 0 71 14 134 30 131 34 133 35 106 14 -19 -15 -17 -15
25 -9 107 16 355 89 378 111 18 18 15 22 -15 17 -22 -4 -25 -2 -13 6 12 9 11
11 -7 11 -27 0 -73 -20 -73 -32 0 -16 -55 -30 -115 -30 -33 1 -91 -5 -129 -13
-63 -13 -88 -13 -74 0 2 3 51 12 109 21 57 9 113 18 125 20 26 5 98 112 144
214 33 75 62 107 126 142 l32 17 -7 -27 c-5 -15 -20 -51 -34 -81 -15 -29 -24
-58 -21 -62 7 -13 23 -11 39 4 7 6 54 41 104 76 108 75 186 156 223 231 14 30
41 69 58 85 31 28 32 29 19 5 -7 -14 -13 -33 -14 -43 -2 -21 -25 -48 -25 -30
0 7 5 15 10 18 12 8 13 25 1 25 -17 0 -38 -75 -35 -129 2 -39 9 -60 25 -77 21
-23 22 -26 7 -57 -14 -29 -19 -32 -59 -32 -37 0 -45 -4 -56 -26 -10 -20 -22
-28 -55 -32 -70 -9 -98 -61 -59 -108 18 -22 22 -23 63 -12 24 6 62 9 84 6 37
-5 44 -2 98 48 72 66 116 139 116 195 0 25 -6 47 -15 54 -8 7 -15 17 -15 23 0
20 53 67 76 67 12 0 27 6 33 14 15 18 51 27 51 13 0 -7 -9 -41 -20 -77 -22
-71 -24 -90 -12 -90 8 0 62 103 62 119 0 5 8 26 17 47 9 22 16 43 15 48 -2 4
2 14 9 22 6 7 8 17 5 23 -3 5 1 12 9 15 12 4 14 0 9 -22 -4 -15 -11 -35 -15
-44 -11 -22 -11 -31 0 -24 5 4 5 -8 1 -27 -30 -120 -51 -191 -69 -225 -25 -48
-137 -153 -209 -196 -30 -17 -66 -39 -80 -48 -95 -61 -239 -128 -277 -128 -51
0 -58 10 -40 59 19 54 19 61 0 61 -10 0 -40 -51 -84 -143 -95 -200 -146 -274
-281 -407 -172 -170 -463 -422 -518 -447 -107 -49 -319 -51 -413 -2 -88 44
-403 313 -559 475 -106 110 -145 184 -195 364 -20 74 -52 189 -70 255 -63 223
-128 485 -123 490 3 3 26 -4 52 -15 26 -11 49 -20 51 -20 2 0 -2 19 -10 41 -8
23 -15 48 -15 55 0 20 40 17 106 -7 l56 -21 -7 -35 c-20 -106 7 -396 41 -440
12 -16 13 -16 14 -1 0 9 -6 49 -14 90 -8 40 -17 103 -21 141 -7 61 -6 67 11
67 32 0 232 -72 308 -111 67 -34 71 -39 78 -77 14 -83 60 -134 134 -148 26 -5
33 -12 45 -52 14 -45 47 -79 56 -56 2 6 10 19 17 29 12 17 16 16 61 -18 26
-21 54 -37 61 -37 7 0 19 -3 27 -6 13 -5 14 1 6 33 -5 21 -9 58 -9 83 -1 25
-5 54 -10 65 -7 18 -8 18 -15 -8 -4 -16 -5 -56 -1 -90 6 -56 5 -60 -10 -45
-11 11 -17 39 -20 91 -2 41 -8 85 -13 98 l-9 24 -10 -25 c-6 -14 -11 -18 -11
-10 -1 21 56 162 118 295 113 239 259 459 416 623 90 95 178 171 198 172 4 0
7 -57 7 -127z m120 -120 c43 -137 68 -269 76 -404 l7 -115 -74 -50 c-41 -27
-76 -52 -79 -55 -14 -16 -162 -110 -167 -106 -3 3 13 63 35 134 23 70 46 148
52 173 6 25 14 52 17 60 3 8 5 25 4 37 -3 25 27 48 76 58 18 4 35 11 38 16 9
13 -9 11 -55 -7 -23 -9 -44 -14 -47 -10 -4 3 1 61 10 129 10 67 17 176 18 242
l0 120 29 -63 c16 -34 43 -106 60 -159z m-1790 -77 c0 -16 -38 25 -43 47 -5
19 -2 17 18 -8 14 -16 25 -34 25 -39z m-38 -14 c-4 -11 -6 -11 -13 0 -5 7 -9
22 -9 32 0 19 0 19 14 1 8 -11 11 -25 8 -33z m28 -11 c0 -5 -7 -12 -16 -15
-14 -5 -15 -4 -4 9 14 17 20 19 20 6z m2934 -77 c31 -31 38 -56 31 -110 -3
-30 -11 -54 -17 -54 -5 0 -8 -6 -5 -13 3 -7 -2 -22 -10 -32 -13 -18 -14 -16
-12 25 6 107 -67 130 -166 54 -25 -19 -45 -31 -45 -28 0 4 -7 1 -15 -6 -8 -7
-12 -17 -8 -23 4 -6 1 -7 -7 -2 -7 4 -16 2 -21 -6 -7 -11 -9 -10 -9 5 0 25
117 138 182 176 60 34 80 37 102 14z m-635 -176 c1 -43 -2 -78 -5 -78 -3 0
-13 8 -22 17 -15 15 -17 15 -20 1 -2 -13 -7 -14 -27 -4 -32 14 -31 22 4 100
48 104 69 94 70 -36z m-2507 37 c37 -25 37 -25 22 -60 -15 -37 -19 -85 -6 -85
4 0 15 22 25 49 l17 49 40 -21 c44 -24 47 -32 25 -84 -21 -50 -19 -80 14 -178
32 -95 53 -125 86 -125 19 0 26 -12 49 -82 14 -46 29 -98 32 -116 7 -32 6 -32
-22 -22 -123 47 -223 180 -294 390 -26 76 -34 117 -38 203 -2 60 -1 107 4 107
5 0 26 -11 46 -25z m583 -165 c11 -10 28 -20 37 -22 21 -4 281 -208 274 -215
-2 -3 -34 12 -69 32 -65 36 -258 105 -331 119 l-39 7 7 61 c3 33 8 64 11 69 7
10 79 -24 110 -51z m-1466 16 c-13 -28 -32 -30 -37 -4 -2 8 7 19 20 25 30 13
31 11 17 -21z m1090 -170 c26 -97 27 -107 10 -90 -37 38 -81 201 -64 241 9 21
9 20 54 -151z m-1189 61 c-12 -39 -32 -97 -45 -127 -27 -65 -52 -206 -61 -345
-4 -55 -12 -124 -20 -153 -30 -121 -37 -207 -25 -355 13 -175 38 -276 91 -372
l40 -72 -28 -36 c-15 -20 -31 -36 -35 -37 -4 0 -14 15 -22 33 -7 18 -28 55
-47 82 -19 28 -42 70 -52 95 -11 25 -27 63 -37 85 -10 22 -21 58 -25 80 -3 22
-11 45 -15 51 -5 6 -12 33 -15 60 -4 27 -10 54 -15 59 -4 6 -13 50 -19 98 -9
74 -8 109 9 230 11 78 27 165 35 192 26 85 132 332 166 385 35 55 133 147 138
130 2 -6 -6 -43 -18 -83z m3742 11 c-7 -7 -12 -8 -12 -2 0 14 12 26 19 19 2
-3 -1 -11 -7 -17z m1256 -98 c13 -16 52 -86 52 -95 0 -3 -3 -4 -7 -3 -5 1 -19
-4 -33 -11 -20 -11 -23 -11 -12 0 17 18 15 34 -2 16 -17 -16 -101 -14 -122 4
-8 6 -14 20 -14 30 0 10 -4 21 -10 24 -14 8 -13 25 1 25 7 0 18 8 25 18 8 10
13 12 14 5 0 -19 50 6 50 25 0 12 4 11 22 -4 13 -10 28 -26 36 -34z m70 -288
c12 -1 22 -9 22 -17 0 -8 5 -15 10 -15 6 0 10 8 10 17 0 26 15 4 15 -23 1 -13
-6 -26 -14 -29 -14 -5 -14 -7 -1 -15 13 -8 13 -10 0 -10 -9 0 -33 -9 -54 -19
-29 -15 -36 -16 -32 -5 3 8 -1 14 -8 14 -15 0 -66 55 -66 71 0 29 31 37 118
31z m-3751 -158 c12 -38 33 -107 47 -154 40 -131 84 -197 244 -359 78 -80 144
-152 146 -161 18 -61 71 -234 85 -276 l18 -52 -90 77 c-49 42 -105 90 -124
106 l-34 30 -4 103 c-4 113 -24 179 -25 81 0 -31 -3 -77 -6 -101 -6 -46 -7
-46 -28 -28 -79 68 -125 102 -177 131 -99 56 -106 63 -107 113 -3 71 -37 164
-98 266 -69 115 -77 160 -44 238 12 29 26 52 30 52 4 0 12 11 18 24 l11 25 58
-23 58 -24 22 -68z m3843 5 c0 -16 5 -29 10 -29 18 0 10 -26 -15 -50 -14 -13
-23 -26 -20 -28 2 -3 18 10 35 28 17 18 32 31 34 29 3 -2 -11 -21 -30 -42 -34
-37 -64 -48 -64 -24 0 8 -11 24 -25 37 -19 18 -22 26 -13 32 10 6 10 8 -1 8
-10 0 -11 3 -2 14 9 11 9 15 0 18 -7 2 7 14 31 26 50 25 60 22 60 -19z m-1672
-153 c26 -23 56 -76 66 -118 4 -19 -5 -50 -34 -113 -65 -142 -68 -149 -68
-187 0 -21 3 -38 6 -38 11 1 82 69 82 79 0 5 4 11 8 13 16 6 49 64 55 94 7 39
-1 49 -24 28 -14 -13 -11 0 11 52 16 38 30 75 30 83 0 7 12 25 28 38 28 25
110 68 118 61 5 -6 -134 -287 -149 -302 -15 -15 -47 -57 -88 -113 -28 -40
-119 -116 -168 -142 -34 -19 -25 -28 34 -36 56 -7 56 -7 33 -24 -13 -10 -39
-23 -58 -31 -77 -29 -150 -63 -150 -70 0 -4 10 -11 23 -15 19 -6 16 -9 -22
-18 -34 -8 -46 -8 -49 1 -2 7 -9 18 -16 25 -30 30 -36 55 -27 119 5 35 7 65 5
67 -2 2 -4 -1 -4 -7 0 -22 -19 -12 -22 11 -5 35 -23 20 -20 -16 3 -29 2 -31
-11 -13 -13 17 -14 17 -26 -12 -7 -17 -12 -34 -11 -38 1 -4 -2 -10 -7 -13 -5
-3 -20 -26 -34 -51 -13 -25 -26 -47 -29 -50 -3 -3 -16 -19 -28 -36 -20 -29
-30 -33 -119 -49 -54 -10 -105 -20 -113 -23 -13 -5 -13 -3 1 14 8 10 51 79 95
153 50 85 97 150 128 180 129 120 270 268 305 319 21 31 62 101 91 154 l53 97
41 -26 c22 -14 52 -35 64 -47z m-2452 -65 c37 -38 71 -68 75 -66 3 3 4 16 1
30 -2 14 -2 25 1 25 19 0 136 -274 123 -287 -2 -3 -21 6 -43 20 -43 27 -111
52 -120 43 -3 -3 9 -13 27 -23 135 -74 305 -183 360 -231 36 -32 99 -85 141
-119 65 -53 147 -139 387 -405 42 -47 52 -63 46 -81 -4 -12 -17 -60 -29 -107
-21 -79 -24 -85 -46 -82 -46 6 -95 25 -211 83 l-116 59 -17 50 c-9 27 -25 95
-35 150 -10 56 -20 103 -23 107 -11 11 -27 -10 -62 -82 -20 -41 -39 -75 -44
-75 -4 0 -34 63 -67 140 -41 98 -64 140 -75 140 -20 0 -29 -28 -29 -92 0 -27
-3 -48 -7 -48 -5 0 -34 54 -66 119 -44 91 -66 152 -94 267 -20 82 -62 231 -94
330 -55 170 -64 204 -55 204 2 0 34 -31 72 -69z m4257 2 c-7 -2 -13 -8 -13
-12 0 -10 59 -1 66 10 8 14 24 10 18 -5 -6 -16 37 -46 68 -46 19 0 20 -2 8
-10 -12 -8 -9 -10 11 -10 26 0 89 -50 89 -70 0 -6 8 -11 18 -11 16 -1 16 -2 0
-6 -10 -2 -18 -13 -18 -23 0 -16 -5 -19 -32 -14 -35 6 -37 7 -138 49 -91 38
-110 52 -104 73 5 14 4 14 -5 2 -17 -24 -24 -3 -10 32 13 34 27 48 44 47 6 0
4 -3 -2 -6z m-5350 -103 c14 -41 33 -105 42 -142 13 -52 21 -68 35 -68 14 0
18 -12 23 -68 4 -38 15 -93 26 -123 l18 -55 -38 -39 c-22 -22 -39 -43 -39 -47
0 -5 -6 -8 -13 -8 -14 0 -70 144 -87 220 -18 85 -34 341 -23 359 6 10 9 31 6
47 -10 54 22 6 50 -76z m5307 80 c0 -5 -5 -10 -11 -10 -5 0 -7 5 -4 10 3 6 8
10 11 10 2 0 4 -4 4 -10z m160 0 c13 -8 13 -10 -2 -10 -9 0 -20 5 -23 10 -8
13 5 13 25 0z m-1718 -264 c16 10 54 -34 73 -82 17 -46 16 -76 -4 -146 -6 -21
-15 -54 -20 -74 -10 -39 -105 -230 -127 -255 -8 -8 -14 -20 -14 -26 0 -13 -71
-103 -81 -103 -5 0 -8 3 -7 8 1 4 -8 30 -21 57 -32 67 -39 36 -12 -50 23 -70
26 -89 12 -81 -5 3 -12 -6 -16 -22 -3 -15 -17 -44 -31 -64 -13 -21 -24 -41
-24 -44 0 -4 -7 -16 -17 -26 -27 -30 -6 -33 31 -4 19 14 38 26 41 26 4 0 19 9
33 21 l27 20 7 -23 c52 -172 93 -288 100 -288 12 0 10 7 -39 193 -35 133 -36
138 -18 151 16 11 21 11 33 0 19 -20 25 -17 19 8 -13 49 22 -10 68 -117 49
-114 60 -133 71 -123 5 5 -27 95 -91 259 -4 10 3 19 20 27 14 6 25 19 25 29 0
14 2 15 13 4 10 -11 10 -14 0 -18 -7 -3 -13 -9 -13 -15 0 -6 7 -4 17 3 12 11
17 11 20 2 5 -13 86 -137 105 -161 6 -7 13 -11 15 -8 6 6 -33 81 -79 150 -21
32 -37 65 -34 72 15 40 127 23 229 -35 80 -46 97 -66 102 -119 2 -21 0 -30 -5
-22 -10 16 -31 4 -24 -15 3 -7 -7 -25 -23 -39 -25 -22 -30 -35 -32 -79 -1 -29
-7 -54 -14 -56 -21 -7 -88 -82 -82 -92 3 -5 0 -6 -8 -3 -15 5 -17 -3 -33 -148
-4 -32 -10 -55 -15 -52 -15 9 -10 -13 6 -26 8 -7 14 -24 14 -39 -1 -26 -1 -26
-10 4 -5 20 -7 7 -3 -41 3 -45 -1 -98 -11 -145 -8 -41 -15 -87 -15 -104 0 -19
-3 -25 -8 -17 -5 7 -17 10 -28 6 -11 -3 -15 -2 -8 3 10 8 -17 44 -33 42 -10
-1 -22 34 -16 46 2 6 -3 1 -13 -10 -16 -20 -16 -20 -11 4 3 14 0 29 -8 37 -7
8 -16 19 -18 26 -4 10 -8 9 -17 -2 -10 -13 -11 -13 -6 3 3 9 2 17 -2 17 -4 0
-13 10 -21 21 -11 18 -11 23 1 31 10 8 9 9 -4 4 -13 -4 -22 3 -33 24 -20 39
-50 41 -41 4 9 -36 -8 -22 -40 32 -23 39 -44 57 -44 37 0 -13 104 -218 115
-225 7 -5 6 -8 0 -8 -6 0 -17 6 -23 12 -7 7 -5 -3 4 -22 10 -19 20 -37 24 -40
4 -3 10 -16 13 -30 4 -14 11 -32 17 -40 9 -13 11 -13 20 0 10 13 11 13 9 0 -3
-29 1 -40 14 -40 18 0 38 -55 24 -69 -8 -8 -6 -11 6 -11 9 0 17 -6 17 -14 0
-8 10 -23 23 -33 21 -18 28 -31 31 -63 0 -8 3 -17 6 -20 3 -3 16 -29 27 -57
l22 -53 -27 1 c-26 1 -53 8 -97 25 -11 4 -31 9 -45 11 -32 6 -38 12 -20 23 19
12 8 13 -24 1 -18 -7 -28 -6 -36 5 -7 7 -18 14 -24 14 -6 0 -4 -5 4 -10 10 -6
11 -10 3 -10 -7 0 -60 23 -117 52 -58 29 -109 49 -113 44 -9 -8 25 -37 77 -63
34 -18 131 -73 140 -80 2 -2 -2 -9 -10 -14 -12 -9 -12 -10 3 -5 10 3 28 -1 40
-10 22 -15 21 -15 -8 -9 -29 5 -29 5 5 -11 62 -29 65 -31 60 -38 -7 -10 28
-28 40 -21 5 3 7 -1 4 -9 -4 -10 5 -18 33 -26 22 -7 56 -26 76 -44 36 -30 36
-32 19 -53 -16 -21 -19 -21 -72 -7 -134 35 -263 -5 -346 -106 l-31 -38 -16 46
c-8 26 -23 72 -31 102 l-15 55 -131 24 c-71 13 -137 20 -145 17 -10 -3 -37 10
-68 33 -88 66 -169 96 -282 106 -59 5 -74 3 -98 -13 l-29 -20 -85 54 c-47 29
-93 56 -104 59 -23 8 -24 18 -4 35 23 19 18 38 -9 36 -13 0 -22 -6 -19 -13 3
-6 -5 -16 -16 -22 -28 -15 -36 -14 -21 4 8 9 9 15 2 15 -6 0 -14 -4 -17 -10
-3 -5 -14 -10 -23 -10 -12 0 -7 6 13 20 17 11 27 20 22 20 -4 0 38 44 93 97
55 54 100 103 100 111 0 8 -5 10 -14 5 -16 -9 -93 -73 -135 -112 -105 -97
-146 -126 -180 -127 -20 0 -49 -2 -64 -2 l-29 -2 6 -62 6 -63 -80 -85 c-72
-77 -94 -110 -73 -110 4 0 42 37 84 81 l77 82 11 -52 c10 -47 9 -54 -10 -74
-32 -35 -80 -110 -73 -116 3 -3 25 15 48 41 42 48 59 59 55 36 -2 -7 1 -32 5
-56 10 -52 8 -54 -106 -139 -57 -42 -86 -69 -79 -76 6 -6 26 4 57 27 26 20 54
34 61 31 8 -2 11 0 8 5 -5 8 49 50 66 50 3 0 9 -19 15 -42 6 -31 15 -44 29
-46 30 -6 32 -11 40 -86 l7 -69 -79 5 c-80 5 -152 31 -153 56 0 6 -4 12 -10
12 -5 0 -10 6 -10 14 0 19 -32 30 -42 14 -6 -10 -8 -10 -8 -1 0 7 -12 15 -27
19 -39 9 -113 46 -113 56 0 5 -4 6 -10 3 -12 -7 -70 22 -70 36 0 6 -5 7 -11 3
-8 -4 -10 3 -7 22 3 16 3 23 1 17 -3 -7 -8 -13 -13 -13 -4 0 -4 18 1 41 5 22
7 44 4 49 -3 5 -1 11 5 15 5 3 10 16 10 29 0 12 9 40 20 62 19 36 20 37 15 9
l-5 -30 14 30 c8 17 12 39 9 49 -4 14 -1 18 10 13 11 -4 13 0 9 15 -4 15 -2
19 7 14 18 -12 46 23 67 83 10 28 22 51 27 51 4 0 5 5 2 10 -3 6 -2 10 3 10 5
0 21 19 36 43 15 23 45 53 66 66 22 14 37 27 35 31 -2 3 12 12 31 19 18 7 34
16 34 21 0 5 -7 6 -17 3 -11 -4 -14 -3 -9 6 4 6 16 9 27 6 10 -4 19 -2 19 4 0
5 9 13 20 16 11 4 18 11 15 16 -3 5 2 6 11 2 14 -5 16 -2 11 17 -4 16 -3 20 5
12 14 -14 61 16 54 34 -3 9 0 11 11 7 9 -4 21 1 29 11 6 10 16 17 21 17 4 -1
9 4 9 9 3 23 5 24 13 11 5 -7 14 -10 20 -6 9 5 9 10 0 21 -8 10 -8 14 0 14 6
0 11 -4 11 -10 0 -16 14 -12 42 15 16 15 25 31 22 40 -4 8 -1 15 5 15 6 0 11
-5 11 -12 0 -9 3 -9 12 0 7 7 20 12 30 12 11 0 18 7 18 20 0 19 10 24 38 21 6
-1 12 5 12 13 0 25 31 55 49 48 14 -5 14 -3 2 11 -12 15 -11 17 3 17 9 0 21
11 26 25 5 14 15 25 21 25 6 0 9 7 5 15 -3 8 -2 15 3 15 12 0 61 47 55 53 -6
6 54 56 233 197 67 52 118 99 113 103 -8 9 -104 -47 -143 -83 -22 -21 -33 -25
-40 -12 -2 4 -2 2 -1 -5 2 -7 -11 -22 -29 -34 -18 -12 -43 -32 -57 -45 -30
-27 -69 -27 -97 2 l-21 22 26 11 c25 11 26 10 8 -4 -11 -8 -16 -15 -10 -15 16
1 39 24 39 40 0 8 9 15 20 16 37 2 55 16 55 43 0 14 4 22 8 16 4 -5 16 -17 27
-25 19 -14 19 -14 6 3 -12 15 -11 17 12 17 20 0 28 7 37 35 11 32 20 40 43 36
5 -1 4 7 -2 16 -9 15 10 38 117 143 70 69 159 161 197 205 38 44 80 91 92 104
26 27 53 77 54 100 0 12 3 11 10 -4 7 -16 8 -13 7 15 -1 19 1 40 5 47 4 6 1
14 -5 16 -9 4 -7 6 3 6 9 1 28 10 43 22 14 11 26 17 26 13 0 -4 18 12 40 37
36 40 39 47 34 89 -3 25 -2 41 2 37 5 -4 15 7 24 25 9 18 22 32 29 30 7 -1 10
2 6 8 -8 13 32 70 50 70 7 0 16 8 20 18 5 11 9 13 12 4 3 -6 9 -9 15 -6z
m-965 -397 c-59 -113 -59 -113 -177 -155 -118 -42 -327 -130 -412 -173 l-77
-39 -25 41 c-13 23 -33 51 -45 61 -12 11 -21 23 -21 29 0 5 -23 60 -51 123
-27 63 -47 118 -44 123 3 5 7 23 9 41 2 17 6 33 9 36 7 8 41 -11 118 -68 135
-98 230 -121 409 -99 115 14 167 38 275 124 44 35 81 63 83 62 1 -1 -22 -49
-51 -106z m-2853 -26 l35 -56 -28 -36 c-99 -127 -132 -236 -176 -576 -10 -71
-20 -152 -24 -180 l-7 -50 -42 125 c-27 82 -42 144 -42 176 0 65 39 178 132
384 41 91 83 189 92 218 10 28 19 52 21 52 2 0 19 -25 39 -57z m3440 -36 c-52
-100 -162 -223 -351 -391 l-42 -37 -143 -4 c-158 -4 -211 -14 -391 -77 -64
-22 -120 -38 -123 -35 -3 3 6 21 20 40 14 19 26 36 26 38 0 3 -64 -17 -142
-43 -83 -28 -146 -44 -152 -38 -9 9 25 134 50 183 24 45 125 98 403 209 192
77 527 153 734 167 65 4 102 11 105 19 2 7 8 10 13 6 5 -3 2 -19 -7 -37z
m2235 -456 c14 -47 14 -270 0 -330 -9 -40 -87 -172 -109 -186 -15 -9 -109 236
-110 286 0 33 -36 174 -53 208 -12 24 -11 26 8 28 11 1 61 8 110 15 141 22
140 22 154 -21z m-308 -78 c32 -114 41 -190 40 -373 0 -151 -3 -184 -22 -240
-25 -79 -28 -82 -98 -127 -31 -20 -68 -44 -84 -55 -28 -20 -50 -15 -76 16 -34
40 -149 95 -241 114 -165 35 -271 46 -280 31 -6 -8 -24 -12 -49 -11 -77 5
-117 -14 -166 -76 -42 -54 -55 -82 -37 -82 4 0 24 22 44 48 20 27 53 57 74 67
35 16 48 17 134 7 116 -14 276 -55 348 -89 41 -19 56 -22 65 -14 9 9 6 17 -13
32 -38 29 6 13 50 -19 114 -83 144 -118 177 -203 18 -46 46 -138 63 -204 17
-66 33 -128 36 -137 4 -13 -4 -18 -38 -25 -34 -7 -44 -13 -46 -32 -3 -18 -8
-22 -25 -16 -113 35 -182 37 -335 9 -50 -9 -102 -12 -133 -8 l-51 7 25 21 c66
57 149 138 145 142 -5 5 -141 -110 -172 -145 -11 -11 -27 -21 -37 -21 -20 0
-40 -49 -32 -79 9 -35 -4 -23 -29 25 -12 26 -27 48 -33 49 -5 2 -49 6 -97 9
l-87 6 -7 -60 c-4 -33 -9 -60 -13 -60 -3 0 -31 9 -61 19 l-55 18 -12 94 c-7
52 -14 150 -15 219 -2 123 -1 126 31 198 36 78 35 103 -1 57 -52 -65 -49 -65
-45 0 3 61 15 89 90 224 51 93 143 158 329 233 30 13 56 28 56 33 1 6 -13 15
-31 21 l-32 12 25 10 c14 5 50 20 80 32 112 44 142 68 240 185 52 62 97 114
100 114 3 1 13 -17 23 -39 9 -22 19 -40 22 -40 2 0 25 22 50 49 26 27 72 67
103 88 31 21 59 42 61 46 7 18 24 -13 42 -80z m-4520 -652 c21 -17 22 -21 9
-36 -14 -16 -13 -17 9 -10 21 6 22 5 10 -7 -10 -12 -22 -13 -49 -6 -19 5 -45
9 -57 9 -13 0 -23 3 -23 7 1 16 51 59 71 61 4 1 17 -7 30 -18z m2939 -61 c0
-5 -4 -10 -10 -10 -5 0 -10 5 -10 10 0 6 5 10 10 10 6 0 10 -4 10 -10z m-2856
-166 c9 -8 16 -25 16 -37 0 -17 2 -19 9 -8 6 10 9 2 8 -24 -1 -24 5 -42 15
-49 25 -19 41 -89 26 -121 -9 -21 -17 -25 -35 -20 -34 8 -30 -19 7 -45 17 -12
30 -28 30 -36 0 -8 7 -17 15 -20 12 -5 13 -10 5 -20 -8 -9 -8 -18 -1 -32 9
-18 6 -21 -27 -29 -22 -5 -38 -15 -40 -26 -3 -16 13 -20 63 -17 3 1 13 -6 21
-15 10 -10 21 -12 28 -7 11 9 121 7 174 -3 14 -2 29 1 34 7 16 27 20 -5 5 -37
-10 -21 -12 -37 -7 -40 6 -3 10 -2 10 3 0 6 8 13 17 16 15 6 15 5 -1 -13 -10
-11 -23 -18 -27 -15 -5 3 -9 0 -9 -6 0 -6 -13 -25 -30 -43 -16 -18 -30 -35
-30 -39 0 -15 27 -8 45 12 10 12 25 18 32 15 8 -2 11 0 8 5 -3 6 1 10 10 10 9
0 14 3 12 8 -3 4 1 13 9 19 8 8 15 9 19 3 3 -6 1 -10 -5 -10 -6 0 -8 -4 -5
-10 3 -5 2 -10 -3 -10 -8 0 -14 -12 -26 -50 -7 -23 -49 -100 -55 -100 -4 0
-12 5 -19 12 -9 9 -17 9 -36 -2 -23 -12 -28 -10 -80 40 -31 30 -56 61 -56 70
0 17 39 80 66 107 13 14 13 17 -2 34 -9 10 -21 16 -26 13 -6 -4 -5 -10 3 -15
10 -6 5 -9 -16 -9 -16 0 -75 -20 -130 -45 -91 -41 -107 -52 -181 -131 -52 -54
-86 -100 -94 -125 -8 -22 -20 -48 -28 -57 -13 -16 -13 -16 -8 1 6 19 -10 24
-17 5 -3 -7 -6 1 -6 17 -1 17 3 35 8 40 4 6 16 33 26 60 10 28 40 96 67 153
30 60 48 111 45 123 -6 21 8 26 17 7 4 -7 4 -2 2 11 -4 17 7 41 34 79 42 57
43 72 7 72 -25 1 -57 22 -57 37 0 6 16 21 35 34 36 25 49 44 39 60 -6 10 -155
89 -189 100 -18 6 -18 7 3 8 13 1 21 5 17 10 -3 5 19 13 49 16 32 4 57 13 60
21 3 7 26 19 51 25 25 6 48 15 51 20 8 14 31 11 48 -7z m4913 -6 c39 -44 126
-320 104 -332 -3 -1 -27 -9 -53 -16 -27 -7 -48 -16 -48 -19 0 -25 -69 -454
-74 -459 -8 -7 -8 -12 8 233 8 115 13 211 12 213 -8 7 -242 -41 -248 -51 -4
-7 -8 -23 -9 -37 -1 -23 -2 -22 -8 5 l-6 30 -72 -3 -72 -4 -11 44 c-6 23 -25
90 -41 147 -16 57 -28 104 -27 105 2 0 12 6 23 13 43 26 153 76 220 100 108
40 155 50 221 52 51 1 64 -3 81 -21z m-8256 -36 l166 -37 -36 -44 c-30 -37
-36 -51 -36 -93 0 -45 -2 -48 -21 -44 -54 14 -162 17 -201 7 -49 -13 -103 -71
-155 -165 -18 -32 -44 -70 -57 -85 -22 -23 -25 -23 -30 -7 -6 16 -9 16 -34 -4
-31 -25 -32 -67 -1 -62 57 11 95 44 157 139 99 149 96 147 237 151 l118 4 11
-65 c6 -35 11 -98 11 -140 l0 -77 -37 0 c-62 0 -112 -34 -193 -130 -50 -60
-77 -85 -83 -77 -5 8 -16 2 -37 -23 -43 -50 -38 -72 6 -29 l37 34 -23 -32
c-13 -18 -21 -36 -17 -39 9 -9 91 67 175 163 73 82 79 87 142 97 33 5 36 3 55
-36 15 -31 29 -45 55 -54 47 -17 156 -16 202 0 37 13 38 13 57 -18 39 -64 65
-146 41 -131 -5 3 -10 -1 -10 -10 0 -11 5 -15 15 -11 8 3 15 1 15 -4 0 -13
-70 -20 -175 -17 -77 2 -96 -1 -133 -20 -48 -26 -56 -28 -47 -13 4 6 2 17 -5
25 -6 7 -26 50 -44 94 -36 88 -52 113 -44 69 7 -39 -8 -25 -22 20 -7 20 -17
42 -22 47 -16 15 1 -49 27 -109 12 -28 25 -59 28 -68 4 -10 13 -18 21 -18 8 0
17 -13 21 -30 4 -16 11 -32 16 -35 5 -4 9 -10 9 -15 0 -9 -155 -120 -168 -120
-4 -1 -20 -12 -37 -25 -22 -18 -25 -25 -13 -25 31 0 72 21 203 103 l129 82
139 -1 c82 -1 143 -6 149 -12 18 -18 98 -294 98 -337 0 -39 -3 -44 -59 -83
-66 -46 -86 -46 -97 1 -6 31 1 41 46 67 26 15 2 23 -60 21 l-60 -2 7 32 c6 29
4 31 -17 24 -13 -4 -44 -18 -68 -31 -25 -13 -50 -24 -57 -24 -7 0 -23 -9 -37
-19 -17 -14 -52 -23 -111 -29 -102 -11 -124 -23 -155 -86 -33 -65 -70 -106
-95 -105 -28 0 -62 43 -76 96 -15 56 -5 232 18 316 18 66 13 98 -9 57 -6 -11
-15 -18 -21 -14 -12 7 -95 -45 -133 -85 -31 -32 -30 -18 -10 -180 4 -31 2 -51
-5 -55 -7 -5 -8 -1 -4 11 6 16 5 17 -12 3 -17 -14 -18 -13 -13 7 4 17 -1 28
-18 40 -22 17 -24 27 -29 122 -5 112 2 135 39 126 14 -4 42 7 81 32 53 33 57
38 36 43 -16 3 -27 18 -37 45 -18 53 -17 68 6 144 11 35 18 66 16 69 -6 6
-135 -56 -153 -74 -8 -8 -23 -36 -33 -62 -34 -90 -44 -112 -50 -112 -11 0 -26
16 -44 44 -16 25 -18 42 -12 112 6 88 13 117 26 109 12 -7 120 16 120 26 0 11
-31 11 -87 0 -24 -5 -43 -6 -43 -4 0 2 9 23 20 45 22 46 24 58 11 58 -5 0 -23
-29 -40 -65 -17 -36 -35 -64 -40 -61 -4 3 -20 23 -35 45 -20 28 -26 46 -21 63
10 36 259 548 266 548 4 0 10 -12 14 -27 13 -53 77 -151 102 -156 30 -6 29 1
-12 80 -19 37 -35 75 -35 85 0 9 -5 20 -12 24 -8 5 -9 -2 -4 -27 4 -23 3 -30
-4 -23 -6 6 -13 27 -17 47 -5 35 -5 36 33 42 22 4 44 8 49 11 21 8 115 -7 276
-44z m459 -10 c48 -23 76 -71 155 -257 78 -184 109 -248 160 -325 35 -54 36
-56 33 -145 -2 -65 -6 -89 -15 -88 -22 5 -14 -20 22 -77 62 -96 89 -161 89
-215 1 -62 -29 -195 -45 -206 -6 -4 -9 -14 -6 -22 9 -23 -29 -74 -71 -96 -34
-17 -90 -24 -174 -22 l-28 1 20 35 c11 20 20 42 20 50 0 7 21 31 46 51 46 38
46 39 41 89 -3 28 -12 73 -21 100 -78 254 -86 286 -77 304 6 10 7 21 4 25 -6
6 46 -1 75 -10 25 -7 11 28 -18 44 -17 9 -28 22 -26 29 7 18 -18 33 -59 37
-33 3 -41 9 -63 48 l-25 44 26 55 c27 56 35 93 42 194 2 33 5 69 7 80 2 11 -2
19 -9 18 -6 -2 -17 14 -24 35 -21 63 -89 155 -104 140 -3 -3 8 -36 24 -74 47
-111 54 -146 49 -231 -7 -128 -56 -189 -169 -212 -49 -10 -120 -3 -136 12 -2
3 -8 21 -13 41 -7 33 -5 38 39 79 31 29 62 47 94 55 62 16 72 39 51 119 -17
64 -37 101 -61 110 -25 10 -120 -26 -142 -53 -23 -29 -27 -25 -36 44 -6 46 -4
58 18 90 64 98 217 150 307 104z m8570 -67 c15 9 22 -37 18 -116 l-3 -74 53
-3 c59 -3 57 2 39 -107 l-12 -70 -40 -5 c-34 -4 -40 -9 -43 -31 l-3 -25 183
-28 c212 -32 369 -58 366 -62 -2 -1 -118 -19 -258 -38 -140 -20 -269 -39 -286
-41 -26 -5 -33 -12 -42 -44 -16 -52 -17 -51 28 -51 22 0 40 -3 40 -7 0 -5 -9
-44 -18 -88 l-18 -80 -50 -5 c-41 -4 -49 -8 -52 -27 l-3 -23 280 0 c218 0 281
-3 281 -12 0 -7 -7 -48 -15 -91 -8 -43 -15 -81 -15 -83 0 -2 -132 -4 -294 -4
-270 0 -328 -5 -296 -25 6 -4 118 -6 249 -6 268 1 276 -1 287 -69 4 -27 0 -44
-20 -73 l-26 -38 20 -29 c11 -15 20 -33 20 -39 0 -8 -59 -11 -190 -11 l-191 0
7 36 c6 35 6 35 -22 32 -23 -2 -31 -10 -39 -36 -9 -31 -11 -32 -61 -32 -29 0
-54 5 -56 11 -2 6 -14 5 -33 -5 -34 -18 -80 -13 -108 12 -16 14 -20 14 -46 -1
-59 -35 -149 -11 -152 41 -2 31 3 57 13 69 6 7 7 20 4 29 -3 9 1 31 10 49 19
41 85 71 124 57 30 -11 112 -4 121 10 10 16 -2 48 -22 59 -24 12 -39 4 -39
-22 0 -16 -7 -19 -50 -19 -58 0 -68 17 -13 22 35 3 38 6 44 41 8 49 11 51 39
27 24 -21 40 -26 40 -12 -1 16 -28 40 -90 81 -60 40 -65 42 -77 25 -8 -10 -16
-35 -20 -56 -3 -21 -9 -38 -14 -38 -5 0 -9 -10 -9 -22 0 -12 -3 -19 -6 -15 -6
6 3 78 37 280 l22 127 90 0 90 0 -7 -37 c-15 -84 -19 -173 -8 -173 16 0 20 22
27 146 7 104 6 112 -11 117 -11 3 -85 22 -167 43 -81 20 -146 39 -144 40 2 2
83 23 181 47 174 42 209 58 191 87 -3 6 -46 10 -96 10 -64 0 -89 3 -89 13 0 6
5 47 12 90 l11 77 114 0 c108 0 114 1 123 23 5 12 24 65 42 117 21 61 34 87
36 72 2 -12 7 -20 12 -17z m-4157 -88 c349 -127 508 -483 358 -803 -49 -106
-177 -214 -281 -239 l-26 -6 -53 298 c-29 164 -55 306 -57 315 -3 9 -17 18
-32 20 l-26 3 -33 205 c-17 113 -32 214 -32 224 -1 17 4 18 58 13 32 -4 88
-17 124 -30z m-4564 -67 c21 -11 44 -84 39 -124 -2 -23 -11 -32 -43 -44 -22
-8 -59 -30 -82 -49 -23 -18 -44 -33 -47 -33 -3 0 -6 21 -6 48 0 26 -5 65 -10
87 -9 37 -8 42 18 63 22 19 97 61 110 62 2 0 11 -4 21 -10z m9196 1 c-6 -5
-21 -11 -35 -13 -21 -2 -25 -7 -22 -33 2 -16 7 -32 11 -35 4 -3 23 -38 41 -77
19 -40 40 -73 46 -73 13 0 24 23 24 51 0 10 5 19 10 19 10 0 4 -113 -7 -132
-6 -11 -173 -10 -173 1 0 4 4 32 10 61 14 76 2 81 -34 14 l-31 -59 -74 -3
c-97 -4 -106 0 -88 35 26 50 30 73 13 73 -25 0 -26 14 -9 99 l16 81 155 0 c95
0 152 -4 147 -9z m-4180 -33 c66 -16 154 -69 196 -116 89 -101 123 -240 82
-333 -24 -54 -75 -115 -114 -135 -16 -8 -29 -19 -29 -24 0 -5 40 -71 88 -147
49 -76 91 -143 95 -150 5 -8 -18 -20 -74 -38 -46 -14 -88 -24 -94 -21 -6 2
-31 47 -56 100 -24 53 -47 96 -50 96 -3 0 -12 -35 -18 -77 -7 -43 -14 -87 -16
-98 -4 -19 -10 -20 -82 -15 -43 3 -80 7 -83 10 -13 14 -7 41 16 66 43 50 105
161 126 226 10 35 22 102 25 149 10 144 -20 258 -99 385 -28 45 -38 72 -38
103 l0 41 43 -6 c23 -3 60 -10 82 -16z m-1245 -125 c0 -5 -6 -16 -14 -25 -10
-14 -15 -15 -25 -5 -10 9 -11 6 -7 -15 4 -26 -17 -58 -30 -45 -7 7 -44 -29
-44 -43 0 -5 -2 -10 -4 -10 -2 0 -12 -3 -21 -6 -9 -4 -15 -3 -13 2 2 5 0 10
-4 12 -18 5 -28 1 -28 -13 0 -8 -7 -15 -15 -15 -9 0 -14 8 -13 24 2 16 7 22
19 19 16 -4 69 39 69 56 0 11 35 51 45 51 5 0 0 -10 -11 -21 -19 -22 -19 -22
1 -11 11 6 28 20 37 31 17 20 58 30 58 14z m1663 -17 c37 -7 72 -17 77 -22 4
-5 38 -126 73 -269 97 -391 117 -478 112 -483 -3 -3 -39 -11 -79 -17 -89 -14
-85 -19 -113 130 l-18 100 -42 3 c-46 3 -46 3 -58 -80 -3 -27 -10 -48 -14 -48
-14 0 -121 169 -121 191 0 11 17 41 39 67 68 82 76 105 76 217 0 85 -3 106
-22 142 -46 84 -34 93 90 69z m677 -31 c-7 -8 -16 -15 -21 -15 -5 0 -6 7 -3
15 4 8 13 15 21 15 13 0 13 -3 3 -15z m107 3 c15 -12 -1 -53 -34 -85 l-23 -22
0 22 c0 17 -2 19 -10 7 -5 -8 -12 -11 -17 -7 -4 4 -2 17 5 27 10 16 9 18 -3
14 -8 -4 -15 -11 -15 -17 0 -6 -3 -8 -6 -5 -3 4 2 18 11 32 10 14 13 26 9 26
-5 0 -3 4 5 9 18 11 63 11 78 -1z m-202 -78 c24 -12 59 -35 76 -51 l32 -29
-50 -53 c-27 -29 -52 -58 -54 -64 -3 -9 -17 -9 -56 3 -66 19 -117 7 -160 -38
-51 -55 -67 -135 -39 -202 30 -73 113 -100 161 -51 41 40 33 57 -22 54 l-48
-3 -3 67 -3 67 64 0 64 0 6 -67 c6 -82 36 -155 84 -205 l36 -37 -29 -25 c-37
-33 -124 -66 -172 -66 -43 0 -109 17 -117 30 -6 10 -60 187 -116 379 l-39 135
25 42 c33 56 99 111 155 129 59 19 148 13 205 -15z m623 11 c9 -5 44 -64 77
-131 l60 -122 7 54 c3 29 6 83 7 120 1 37 5 69 10 72 5 3 36 3 70 0 l61 -7 0
-302 c0 -166 -3 -322 -6 -346 l-6 -44 -67 3 -66 3 -24 42 c-13 23 -32 59 -43
80 -11 20 -24 37 -28 37 -8 0 -30 -107 -30 -143 0 -15 -13 -17 -95 -17 -87 0
-95 2 -95 19 0 11 15 28 35 41 88 55 138 153 139 275 1 80 -28 154 -83 217
-32 36 -37 64 -25 127 6 28 10 31 46 31 22 0 47 -4 56 -9z m-3098 -51 c0 -5
-7 -10 -15 -10 -8 0 -15 5 -15 10 0 6 7 10 15 10 8 0 15 -4 15 -10z m2892 -62
c54 -23 119 -88 144 -145 24 -55 23 -166 -3 -223 -59 -128 -206 -196 -338
-155 -195 62 -265 300 -132 451 85 97 206 123 329 72z m1821 -34 c20 -6 21
-24 6 -113 -13 -73 -22 -91 -50 -91 -13 0 -19 9 -23 33 -2 17 -9 62 -15 98
-16 95 -17 92 27 85 20 -4 45 -9 55 -12z m974 -57 c5 -5 -36 -247 -43 -259 -5
-7 -424 -12 -424 -5 0 7 40 233 46 256 l5 24 206 -6 c113 -4 207 -8 210 -10z
m-8936 -45 c-13 -2 -27 0 -32 5 -6 6 3 7 23 4 28 -4 29 -6 9 -9z m2213 -72
c-10 -16 -20 -27 -22 -25 -5 5 26 55 34 55 3 0 -3 -13 -12 -30z m699 -20 l57
-21 -30 -31 c-17 -17 -40 -47 -50 -68 -30 -58 -69 -204 -76 -280 l-7 -68 -46
-7 c-73 -11 -107 -32 -125 -76 -9 -22 -16 -53 -16 -69 0 -39 -12 -38 -43 3
-14 18 -46 55 -72 81 l-46 48 17 81 c33 167 60 231 122 299 31 34 84 79 117
101 69 44 97 46 198 7z m-2918 10 c3 -5 1 -10 -4 -10 -6 0 -11 5 -11 10 0 6 2
10 4 10 3 0 8 -4 11 -10z m3045 -320 c0 -5 -4 -10 -10 -10 -5 0 -10 5 -10 10
0 6 5 10 10 10 6 0 10 -4 10 -10z m-15 -100 c3 -5 1 -10 -4 -10 -6 0 -11 5
-11 10 0 6 2 10 4 10 3 0 8 -4 11 -10z m85 0 c0 -5 -5 -10 -11 -10 -5 0 -7 5
-4 10 3 6 8 10 11 10 2 0 4 -4 4 -10z m-73 -42 c-3 -8 -6 -5 -6 6 -1 11 2 17
5 13 3 -3 4 -12 1 -19z m3613 -180 c17 25 30 29 30 9 0 -19 -47 -60 -59 -52
-12 7 -15 98 -3 109 4 4 9 -14 12 -41 5 -46 5 -47 20 -25z m-1560 47 c0 -9 11
-21 25 -27 14 -6 25 -15 25 -21 0 -5 -11 -6 -25 -3 -23 6 -25 3 -25 -24 0 -16
-4 -30 -10 -30 -6 0 -10 27 -10 60 0 33 4 60 10 60 6 0 10 -7 10 -15z m295 5
c-3 -5 -19 -10 -35 -10 -16 0 -32 5 -35 10 -4 6 10 10 35 10 25 0 39 -4 35
-10z m265 -45 l0 -55 -50 0 c-27 0 -50 5 -50 10 0 6 18 10 40 10 35 0 40 3 40
24 0 20 -7 25 -42 32 l-43 8 43 4 c23 2 42 7 42 13 0 5 5 9 10 9 6 0 10 -25
10 -55z m473 43 c4 -10 8 -9 16 2 6 8 11 12 11 8 0 -3 3 -13 6 -22 4 -12 0
-16 -15 -16 -17 0 -21 -6 -21 -35 0 -35 -22 -57 -38 -40 -4 4 -1 10 6 12 6 3
12 18 12 34 0 22 -5 29 -20 29 -11 0 -20 5 -20 10 0 6 9 10 20 10 11 0 20 5
20 10 0 14 17 12 23 -2z m-283 -8 c0 -5 -6 -10 -14 -10 -8 0 -18 5 -21 10 -3
6 3 10 14 10 12 0 21 -4 21 -10z m750 -23 c0 -18 -7 -42 -16 -53 -15 -18 -15
-18 -10 6 3 14 6 37 6 53 0 15 5 27 10 27 6 0 10 -15 10 -33z m764 6 c-9 -38
-23 -63 -34 -63 -12 0 -12 3 -1 32 5 13 12 31 15 41 9 29 27 20 20 -10z m69
-8 c19 -40 21 -55 8 -55 -7 0 -41 70 -41 85 0 17 19 0 33 -30z m-1534 -22
c-28 -29 -79 -58 -79 -44 0 5 15 18 33 30 17 11 38 30 46 43 10 16 16 19 19
10 2 -7 -6 -25 -19 -39z m-511 28 c12 -1 22 -7 22 -16 0 -18 -47 -65 -65 -65
-24 0 -17 14 16 32 35 20 30 40 -9 38 -37 -3 -44 -1 -38 8 3 5 15 8 28 6 13
-1 33 -3 46 -3z m1802 -11 c0 -6 -27 -10 -60 -10 -33 0 -60 4 -60 10 0 6 27
10 60 10 33 0 60 -4 60 -10z m500 0 c0 -5 -25 -10 -55 -10 -30 0 -55 5 -55 10
0 6 25 10 55 10 30 0 55 -4 55 -10z m-1265 -10 c-3 -5 -28 -10 -55 -10 -27 0
-52 5 -55 10 -4 6 17 10 55 10 38 0 59 -4 55 -10z m-335 -14 c0 -15 -18 -31
-26 -23 -7 7 7 37 17 37 5 0 9 -6 9 -14z m86 -23 c-4 -4 -11 -1 -16 7 -16 25
-11 35 7 17 9 -9 13 -20 9 -24z"/>
<path d="M7178 4899 c-41 -44 -79 -94 -112 -146 -4 -7 -3 -13 3 -13 8 0 140
158 164 197 18 29 -10 10 -55 -38z"/>
<path d="M7219 4872 c-86 -94 -141 -163 -135 -169 3 -3 7 -4 9 -2 3 4 125 146
161 187 11 12 15 22 9 22 -5 0 -25 -17 -44 -38z"/>
<path d="M6104 4201 c9 -14 366 -164 374 -157 14 15 -33 40 -191 101 -168 65
-193 73 -183 56z"/>
<path d="M6075 4130 c3 -5 10 -10 16 -10 16 0 203 -92 234 -116 33 -25 156
-87 195 -99 23 -7 22 -4 -10 27 -34 33 -123 98 -134 98 -3 0 -27 13 -54 30
-26 16 -91 41 -143 55 -106 28 -113 29 -104 15z"/>
<path d="M6840 3924 c0 -37 -15 -62 -77 -125 -64 -66 -63 -78 15 -128 38 -24
60 -31 100 -31 45 0 55 4 89 37 l38 38 -33 3 c-24 2 -45 -4 -71 -22 -31 -22
-81 -35 -81 -22 0 2 12 30 26 62 30 68 41 147 25 187 -13 34 -31 35 -31 1z
m-1 -131 c-7 -21 -18 -53 -26 -71 -13 -32 -14 -32 -43 -17 -17 9 -30 19 -30
23 0 12 105 118 108 110 2 -4 -2 -25 -9 -45z"/>
<path d="M6344 3881 c-41 -25 -55 -48 -18 -28 39 21 71 46 59 47 -5 0 -24 -9
-41 -19z"/>
<path d="M6183 3848 c-22 -25 -57 -88 -48 -88 13 0 51 48 61 77 7 18 11 33 10
33 -2 0 -12 -10 -23 -22z"/>
<path d="M6375 3742 c-45 -70 -74 -142 -39 -97 20 26 76 136 72 140 -2 2 -17
-17 -33 -43z"/>
<path d="M7630 3782 c0 -4 20 -28 45 -52 54 -53 59 -44 9 16 -33 41 -54 55
-54 36z"/>
<path d="M7465 3745 c10 -16 29 -46 44 -65 14 -19 40 -61 57 -94 36 -66 48
-64 27 7 -10 35 -31 65 -80 115 -40 41 -59 56 -48 37z"/>
<path d="M7265 3670 c-3 -6 -32 -23 -64 -39 -49 -25 -84 -32 -240 -51 -149
-17 -192 -19 -229 -10 -39 9 -64 8 -51 -4 14 -13 142 -86 145 -83 2 2 -8 14
-22 28 l-26 24 189 21 c103 12 196 25 206 29 17 7 17 6 7 -11 -34 -53 -68 -67
-184 -76 -145 -12 -161 -28 -28 -28 109 0 157 13 200 53 33 30 116 147 109
153 -3 3 -8 0 -12 -6z"/>
<path d="M6406 3625 c-9 -26 -7 -32 5 -12 6 10 9 21 6 23 -2 3 -7 -2 -11 -11z"/>
<path d="M7507 3533 c8 -53 22 -77 23 -38 0 38 -10 75 -21 75 -4 0 -5 -17 -2
-37z"/>
<path d="M7474 3508 c3 -13 6 -34 6 -47 0 -15 4 -21 9 -15 11 12 2 84 -11 84
-6 0 -8 -10 -4 -22z"/>
<path d="M6921 3334 c-44 -13 -101 -45 -101 -56 0 -11 4 -10 77 8 52 13 75 14
127 5 88 -15 91 -15 66 17 -18 22 -32 28 -76 32 -31 3 -72 0 -93 -6z"/>
<path d="M4386 3731 c-20 -40 -35 -75 -33 -78 9 -8 78 119 74 136 -2 9 -19
-15 -41 -58z"/>
<path d="M4396 3561 c-23 -43 -20 -52 5 -12 11 18 18 35 15 38 -2 3 -12 -9
-20 -26z"/>
<path d="M4446 3434 c-4 -9 -4 -19 -1 -22 2 -3 7 3 11 12 4 9 4 19 1 22 -2 3
-7 -3 -11 -12z"/>
<path d="M4425 3389 c-4 -6 -5 -12 -2 -15 2 -3 7 2 10 11 7 17 1 20 -8 4z"/>
<path d="M7737 3363 c-4 -3 -7 -11 -7 -17 0 -6 5 -5 12 2 6 6 9 14 7 17 -3 3
-9 2 -12 -2z"/>
<path d="M6030 3167 c-14 -12 -36 -35 -50 -52 -13 -16 -1 -8 28 20 47 44 57
56 50 55 -2 -1 -14 -11 -28 -23z"/>
<path d="M8665 2600 c-3 -5 -1 -10 4 -10 6 0 11 5 11 10 0 6 -2 10 -4 10 -3 0
-8 -4 -11 -10z"/>
<path d="M7545 2550 c-3 -5 1 -10 9 -10 9 0 16 5 16 10 0 6 -4 10 -9 10 -6 0
-13 -4 -16 -10z"/>
<path d="M7662 2244 c-14 -17 -28 -24 -39 -20 -13 5 -14 4 -3 -9 7 -9 10 -18
6 -22 -3 -3 -6 -1 -6 6 0 7 -4 10 -9 6 -5 -3 -12 -1 -16 5 -4 6 -11 8 -16 5
-5 -4 -12 1 -15 9 -4 10 -18 14 -45 13 -21 -1 -33 -4 -27 -8 6 -4 7 -12 3 -18
-5 -9 -10 -9 -20 -1 -10 9 -19 6 -34 -9 -12 -12 -18 -21 -14 -21 3 0 -2 -9
-12 -20 -9 -10 -15 -26 -11 -35 4 -11 2 -14 -6 -9 -7 5 -9 0 -6 -14 4 -15 2
-19 -8 -15 -9 3 -14 -2 -14 -16 0 -12 -4 -21 -10 -21 -5 0 -10 -11 -10 -25 0
-14 -4 -25 -10 -25 -17 0 -51 -79 -45 -103 5 -17 4 -19 -4 -7 -9 13 -11 12
-12 -5 -1 -11 -1 -26 0 -33 1 -8 -2 -19 -8 -25 -30 -36 -3 -247 32 -247 5 0
16 -8 23 -17 13 -16 15 -17 27 -2 6 9 17 14 22 12 6 -2 28 22 50 52 22 30 49
58 59 61 23 8 49 -22 43 -48 -3 -10 0 -16 6 -15 6 1 13 -11 17 -28 4 -16 20
-50 34 -75 25 -40 27 -42 21 -15 l-6 30 19 -27 18 -27 23 22 c17 16 22 17 18
6 -5 -15 -2 -15 24 -6 16 6 29 16 29 22 0 6 11 22 25 37 14 15 25 32 25 38 0
5 6 10 13 10 7 0 26 22 42 50 17 27 33 50 38 50 4 0 7 4 7 9 0 5 18 38 39 74
56 91 73 136 65 170 -4 20 -3 27 5 23 12 -8 14 4 5 28 -3 9 -11 13 -17 9 -5
-3 -7 -2 -4 3 3 6 2 16 -2 23 -7 10 -13 10 -30 2 -17 -10 -20 -9 -15 4 4 8 1
22 -6 30 -7 8 -10 25 -7 37 3 13 1 32 -3 43 -8 18 -9 18 -9 -4 -1 -13 -4 -21
-7 -18 -12 11 -13 61 -2 68 7 4 7 9 -1 13 -6 4 -11 2 -11 -5 0 -7 -10 -2 -22
11 -13 14 -22 28 -20 33 1 5 -27 7 -62 5 -35 -1 -63 -5 -61 -8 2 -3 -5 -12
-17 -19 -18 -11 -19 -10 -13 8 8 27 5 26 -23 -5z m0 -36 c-7 -7 -12 -8 -12 -2
0 14 12 26 19 19 2 -3 -1 -11 -7 -17z m54 -219 c3 -6 17 -8 29 -5 13 3 27 1
30 -5 12 -18 -4 -59 -23 -59 -10 0 -23 -5 -30 -10 -6 -6 -10 -7 -8 -4 3 3 -4
22 -15 41 -18 33 -18 53 1 53 5 0 12 -5 16 -11z"/>
<path d="M7170 2009 c0 -5 5 -7 10 -4 6 3 10 8 10 11 0 2 -4 4 -10 4 -5 0 -10
-5 -10 -11z"/>
<path d="M6860 1590 c-8 -5 -12 -12 -9 -15 4 -3 12 1 19 10 14 17 11 19 -10 5z"/>
<path d="M7410 2783 c-28 -61 -40 -93 -35 -93 8 0 58 110 53 116 -3 2 -11 -8
-18 -23z"/>
<path d="M6818 2693 c-32 -36 -72 -102 -65 -109 3 -3 18 14 33 38 15 23 35 55
46 71 11 15 18 27 16 27 -3 0 -16 -12 -30 -27z"/>
<path d="M6735 2559 c-4 -6 -5 -12 -2 -15 2 -3 7 2 10 11 7 17 1 20 -8 4z"/>
<path d="M9649 2283 c-35 -28 -45 -38 -109 -108 l-35 -38 54 44 c91 74 136
117 130 123 -3 4 -21 -6 -40 -21z"/>
<path d="M9449 2181 c-52 -49 -92 -91 -89 -94 3 -3 48 37 100 89 52 51 92 94
89 94 -3 0 -48 -40 -100 -89z"/>
<path d="M9309 2143 c-49 -54 -73 -83 -67 -83 4 0 29 27 58 60 58 67 64 81 9
23z"/>
<path d="M9269 1296 c-35 -29 -77 -68 -94 -87 -25 -28 79 58 150 123 41 38 6
16 -56 -36z"/>
<path d="M5130 784 c0 -8 5 -12 10 -9 6 3 10 10 10 16 0 5 -4 9 -10 9 -5 0
-10 -7 -10 -16z"/>
<path d="M1954 1284 c10 -57 54 -162 77 -185 10 -10 19 -26 19 -34 0 -8 7 -15
15 -15 8 0 15 3 15 6 0 13 -33 120 -40 129 -4 6 -13 28 -20 50 -11 33 -14 37
-20 20 -7 -18 -9 -18 -19 8 -6 16 -11 32 -11 37 0 5 -5 12 -11 16 -9 5 -10 -4
-5 -32z"/>
<path d="M1551 1194 c-20 -76 -30 -129 -25 -133 10 -10 21 21 34 90 14 75 8
105 -9 43z"/>
<path d="M2380 642 c0 -47 23 -124 43 -144 22 -23 31 -23 22 0 -4 9 -16 48
-26 86 -21 80 -39 107 -39 58z"/>
<path d="M1683 385 c0 -27 2 -38 4 -22 2 15 2 37 0 50 -2 12 -4 0 -4 -28z"/>
<path d="M2660 1279 c0 -11 5 -17 10 -14 6 3 10 13 10 21 0 8 -4 14 -10 14 -5
0 -10 -9 -10 -21z"/>
<path d="M2685 1240 c3 -5 8 -10 11 -10 2 0 4 5 4 10 0 6 -5 10 -11 10 -5 0
-7 -4 -4 -10z"/>
<path d="M10674 338 c-27 -13 -49 -52 -41 -73 4 -9 20 -23 37 -33 17 -9 29
-23 28 -31 -4 -20 -28 -26 -28 -7 0 20 -48 22 -56 2 -3 -8 -1 -24 6 -35 16
-30 91 -30 120 1 31 33 26 64 -15 90 -19 13 -35 29 -35 36 0 14 26 16 35 2 3
-5 15 -10 26 -10 14 0 19 7 19 25 0 39 -49 56 -96 33z"/>
<path d="M10824 340 c-17 -7 -23 -23 -34 -84 -12 -70 -11 -78 5 -96 23 -25 85
-27 115 -2 13 11 27 40 36 77 20 89 19 105 -11 105 -20 0 -25 -6 -30 -37 -13
-75 -26 -111 -40 -117 -24 -9 -28 17 -16 86 12 68 7 80 -25 68z"/>
<path d="M11218 342 l-46 -3 -16 -87 c-22 -119 -24 -112 38 -112 45 0 55 3 59
19 6 25 0 31 -30 31 -37 0 -28 28 10 32 24 2 32 8 32 23 0 14 -8 21 -27 23
-46 5 -27 32 23 32 12 0 19 7 19 19 0 25 -5 27 -62 23z"/>
<path d="M11000 338 c0 -2 -9 -45 -19 -96 -15 -78 -16 -95 -5 -99 22 -8 42 4
46 28 2 17 13 25 38 32 49 12 80 44 80 82 0 44 -16 55 -82 55 -32 0 -58 -1
-58 -2z m85 -63 c0 -13 -8 -21 -22 -23 -17 -3 -23 2 -23 16 0 10 3 22 7 26 13
13 38 1 38 -19z"/>
<path d="M11311 303 c-8 -32 -31 -149 -31 -160 0 -2 11 -3 25 -3 18 0 26 7 31
27 l7 26 19 -26 c12 -17 29 -27 44 -27 28 0 30 7 8 38 -15 21 -14 24 15 51 61
57 34 111 -54 111 -54 0 -54 0 -64 -37z m88 -17 c9 -11 8 -18 -4 -30 -29 -29
-54 -12 -35 24 13 24 23 25 39 6z"/>
<path d="M7034 958 c3 -18 11 -72 17 -121 15 -112 23 -123 68 -100 102 53 100
188 -3 237 -19 9 -46 16 -61 16 -25 0 -27 -2 -21 -32z"/>
<path d="M7479 998 c0 -13 -4 -49 -8 -80 -7 -55 -6 -58 14 -58 33 0 60 36 60
80 0 59 -64 115 -66 58z"/>
<path d="M7810 908 c0 -18 -3 -50 -6 -70 -6 -36 -5 -38 20 -38 25 0 27 3 22
28 -3 15 -8 46 -11 70 -8 49 -25 56 -25 10z"/>
<path d="M8923 807 c-2 -83 -21 -127 -83 -189 l-59 -58 31 0 c21 0 31 -6 35
-20 7 -28 17 -25 49 13 43 50 64 106 64 170 0 49 -20 127 -33 127 -2 0 -4 -19
-4 -43z"/>
<path d="M8700 778 c0 -46 -2 -50 -13 -33 -11 14 -21 16 -50 11 -42 -8 -46
-18 -16 -39 15 -11 20 -26 21 -56 0 -22 2 -41 5 -41 2 0 17 7 33 15 27 14 33
14 60 0 41 -21 43 -20 37 22 -5 31 -2 42 19 64 l26 27 -32 7 c-22 5 -38 18
-52 41 -11 19 -24 34 -29 34 -5 0 -9 -23 -9 -52z"/>
<path d="M8532 538 c3 -7 28 -25 57 -40 40 -21 68 -28 109 -28 49 0 54 2 37
13 -13 10 -16 21 -11 41 6 25 5 26 -14 16 -27 -14 -107 -15 -143 -1 -36 14
-40 14 -35 -1z"/>
<path d="M11357 769 c-25 -15 -11 -29 28 -29 37 0 56 17 34 31 -18 11 -40 11
-62 -2z"/>
<path d="M11493 709 c-18 -20 -30 -39 -26 -43 3 -3 23 -6 43 -6 34 0 38 3 44
31 3 17 6 37 6 45 0 24 -35 10 -67 -27z"/>
<path d="M4725 2651 c-71 -54 -104 -94 -40 -48 44 31 106 88 94 86 -2 0 -26
-17 -54 -38z"/>
<path d="M5085 2539 c-63 -9 -223 -60 -265 -84 -34 -19 -24 -18 41 3 30 10
109 31 177 47 67 16 122 33 122 37 0 5 -3 7 -7 7 -5 -1 -35 -5 -68 -10z"/>
<path d="M4005 1540 c14 -66 38 -150 42 -146 7 7 -16 107 -33 141 -12 26 -14
27 -9 5z"/>
<path d="M4091 1465 c1 -19 18 -51 18 -35 0 8 -4 22 -9 30 -5 8 -9 11 -9 5z"/>
<path d="M4211 1380 c-1 -3 10 -39 24 -80 17 -50 24 -63 21 -38 -4 31 -43 133
-45 118z"/>
<path d="M4051 1354 c0 -11 3 -14 6 -6 3 7 2 16 -1 19 -3 4 -6 -2 -5 -13z"/>
<path d="M5801 284 c0 -11 3 -14 6 -6 3 7 2 16 -1 19 -3 4 -6 -2 -5 -13z"/>
<path d="M9513 228 c-44 -11 -73 -52 -73 -100 0 -32 7 -47 35 -75 32 -32 40
-35 76 -30 56 7 86 30 100 76 9 32 9 44 -6 74 -9 19 -24 39 -33 42 -43 18 -69
21 -99 13z m77 -54 c0 -3 -5 -14 -11 -26 -9 -16 -7 -24 12 -44 29 -31 16 -44
-14 -15 l-24 21 -27 -21 c-41 -32 -41 -16 -1 24 37 37 40 59 6 50 -10 -3 -22
0 -25 6 -5 7 8 11 38 11 25 0 46 -3 46 -6z"/>
</g>
</svg>
